<?xml version="1.0" encoding="UTF-8" standalone="no"?>
<!DOCTYPE svg PUBLIC "-//W3C//DTD SVG 1.1//EN" "http://www.w3.org/Graphics/SVG/1.1/DTD/svg11.dtd">
<svg width="100%" height="100%" viewBox="0 0 400 140" version="1.1" xmlns="http://www.w3.org/2000/svg" xmlns:xlink="http://www.w3.org/1999/xlink" xml:space="preserve" xmlns:serif="http://www.serif.com/" style="fill-rule:evenodd;clip-rule:evenodd;stroke-linecap:round;stroke-linejoin:round;stroke-miterlimit:1.5;">
    <g id="sercom-logo" transform="matrix(1.09562,0,0,1.09562,-693.685,-258.08)">
        <path d="M984.401,356.725C956.751,337.002 908.371,305.314 887.206,291.54C881.304,287.699 873.451,288.96 869.05,294.457C859.946,305.827 846.065,323.165 846.065,323.165L877.26,348.778L867.311,357.7L836.448,336.158L820.898,359.207L751.695,359.207L793.096,309.881C793.096,309.881 780.273,300.452 770.475,293.248C764.411,288.788 755.884,290.061 751.386,296.097C736.054,316.674 704.388,359.172 704.388,359.172C704.388,359.172 653.72,359.207 636.7,359.207C636.7,359.207 697.666,283.302 728.078,247.948C732.503,242.803 738.829,239.679 745.604,239.292C752.378,238.904 759.019,241.287 764.002,245.894C782.511,263.005 809.999,290.883 809.999,290.883C809.999,290.883 829.709,265.03 845.689,247.39C854.841,237.288 870.397,236.379 880.663,245.346C893.391,256.463 994.68,346.578 994.68,346.578L984.401,356.725Z" style="fill:rgb(43,48,58);stroke:rgb(43,46,56);stroke-width:6.92px;"/>
    </g>
</svg>
