<?xml version="1.0" encoding="UTF-8" standalone="no"?>
<!DOCTYPE svg PUBLIC "-//W3C//DTD SVG 1.1//EN" "http://www.w3.org/Graphics/SVG/1.1/DTD/svg11.dtd">
<svg width="100%" height="100%" viewBox="0 0 400 140" version="1.1" xmlns="http://www.w3.org/2000/svg" xmlns:xlink="http://www.w3.org/1999/xlink" xml:space="preserve" xmlns:serif="http://www.serif.com/" style="fill-rule:evenodd;clip-rule:evenodd;stroke-linecap:round;stroke-linejoin:round;stroke-miterlimit:1.5;">
    <g transform="matrix(1.04608,0,0,1.04608,-649.817,-243.369)">
        <g id="sercom-logo">
            <path d="M988.06,359.954C960.41,340.231 908.371,305.314 887.206,291.54C881.304,287.699 873.451,288.96 869.05,294.457C859.946,305.827 844.444,327.023 844.444,327.023L867.311,357.7L836.448,336.158L820.898,359.207L751.695,359.207L793.096,309.881C793.096,309.881 780.273,300.452 770.475,293.248C764.411,288.788 755.884,290.061 751.386,296.097C736.054,316.674 704.388,359.172 704.388,359.172C704.388,359.172 653.72,359.207 636.7,359.207C636.7,359.207 697.666,283.302 728.078,247.948C732.503,242.803 738.829,239.679 745.604,239.292C752.378,238.904 759.019,241.287 764.002,245.894C782.511,263.005 810.598,290.433 810.598,290.433C810.598,290.433 829.709,265.03 845.689,247.39C854.841,237.288 870.397,236.379 880.663,245.346C893.391,256.463 988.06,359.954 988.06,359.954Z" style="fill:none;stroke:rgb(67,151,207);stroke-width:10.89px;"/>
        </g>
    </g>
</svg>
