<?xml version="1.0" encoding="UTF-8" standalone="no"?>
<!DOCTYPE svg PUBLIC "-//W3C//DTD SVG 1.1//EN" "http://www.w3.org/Graphics/SVG/1.1/DTD/svg11.dtd">
<svg width="100%" height="100%" viewBox="0 0 46 56" version="1.1" xmlns="http://www.w3.org/2000/svg" xmlns:xlink="http://www.w3.org/1999/xlink" xml:space="preserve" xmlns:serif="http://www.serif.com/" style="fill-rule:evenodd;clip-rule:evenodd;stroke-linecap:round;stroke-linejoin:round;">
    <g transform="matrix(1,0,0,1,-2535,-2360)">
        <g transform="matrix(1.36249,0,0,1,-2520.99,1109.79)">
            <g id="counter-icon-1" transform="matrix(2.5,0,0,2.5,-5845.9,-2940.68)">
                <g transform="matrix(0.733951,0,0,1,3820.64,1675.56)">
                    <path d="M14,2L6,2C4.903,2 4,2.903 4,4L4,20C4,21.097 4.903,22 6,22L18,22C19.097,22 20,21.097 20,20L20,8L14,2Z" style="fill:none;fill-rule:nonzero;stroke:rgb(46,75,93);stroke-width:2px;"/>
                </g>
                <g transform="matrix(0.733951,0,0,1,3820.64,1675.56)">
                    <path d="M14,2L14,8L20,8" style="fill:none;fill-rule:nonzero;stroke:rgb(46,75,93);stroke-width:2px;"/>
                </g>
                <g transform="matrix(0.733951,0,0,1,3820.64,1675.56)">
                    <path d="M16,13L8,13" style="fill:none;fill-rule:nonzero;stroke:rgb(31,167,78);stroke-width:2px;"/>
                </g>
                <g transform="matrix(0.733951,0,0,1,3820.64,1675.56)">
                    <path d="M16,17L8,17" style="fill:none;fill-rule:nonzero;stroke:rgb(31,167,78);stroke-width:2px;"/>
                </g>
                <g transform="matrix(0.733951,0,0,1,3820.64,1675.56)">
                    <path d="M10,9L8,9" style="fill:none;fill-rule:nonzero;stroke:rgb(31,167,78);stroke-width:2px;"/>
                </g>
            </g>
        </g>
    </g>
</svg>
