<?xml version="1.0" encoding="UTF-8" standalone="no"?>
<!DOCTYPE svg PUBLIC "-//W3C//DTD SVG 1.1//EN" "http://www.w3.org/Graphics/SVG/1.1/DTD/svg11.dtd">
<svg width="100%" height="100%" viewBox="0 0 45 49" version="1.1" xmlns="http://www.w3.org/2000/svg" xmlns:xlink="http://www.w3.org/1999/xlink" xml:space="preserve" xmlns:serif="http://www.serif.com/" style="fill-rule:evenodd;clip-rule:evenodd;stroke-linecap:round;stroke-linejoin:round;">
    <g transform="matrix(1,0,0,1,-2747,-3657)">
        <g transform="matrix(1.36249,0,0,1,-2484.99,2408.79)">
            <g id="service-icon-1" transform="matrix(2.22222,0,0,2.22222,-5118.1,-1320.81)">
                <g transform="matrix(0.733951,0,0,1,4029.87,1154.96)">
                    <path d="M9,22L9,12L15,12L15,22" style="fill:none;fill-rule:nonzero;stroke:rgb(31,167,78);stroke-width:1.8px;"/>
                </g>
                <g transform="matrix(0.733951,0,0,1,4029.87,1154.96)">
                    <path d="M3,9L12,2L21,9L21,20C21,21.097 20.097,22 19,22L5,22C3.903,22 3,21.097 3,20L3,9Z" style="fill:none;fill-rule:nonzero;stroke:rgb(46,75,93);stroke-width:1.8px;"/>
                </g>
            </g>
        </g>
    </g>
</svg>
