<?xml version="1.0" encoding="UTF-8" standalone="no"?>
<!DOCTYPE svg PUBLIC "-//W3C//DTD SVG 1.1//EN" "http://www.w3.org/Graphics/SVG/1.1/DTD/svg11.dtd">
<svg width="100%" height="100%" viewBox="0 0 44 44" version="1.1" xmlns="http://www.w3.org/2000/svg" xmlns:xlink="http://www.w3.org/1999/xlink" xml:space="preserve" xmlns:serif="http://www.serif.com/" style="fill-rule:evenodd;clip-rule:evenodd;stroke-linecap:round;stroke-linejoin:round;">
    <g transform="matrix(1,0,0,1,-3495,-3661)">
        <g transform="matrix(1.36249,0,0,1,-1740.99,2408.79)">
            <g id="service-icon-3" transform="matrix(1.81818,0,0,1.81818,-2948.6,-1113.74)">
                <g transform="matrix(0.733951,0,0,1,3735.43,1301.37)">
                    <circle cx="12" cy="12" r="5" style="fill:none;stroke:rgb(31,167,78);stroke-width:2.2px;"/>
                </g>
                <g transform="matrix(0.733951,0,0,1,3735.43,1301.37)">
                    <path d="M12,1L12,3" style="fill:none;fill-rule:nonzero;stroke:rgb(46,75,93);stroke-width:2.2px;"/>
                </g>
                <g transform="matrix(0.733951,0,0,1,3735.43,1301.37)">
                    <path d="M12,21L12,23" style="fill:none;fill-rule:nonzero;stroke:rgb(46,75,93);stroke-width:2.2px;"/>
                </g>
                <g transform="matrix(0.733951,0,0,1,3735.43,1301.37)">
                    <path d="M4.22,4.22L5.64,5.64" style="fill:none;fill-rule:nonzero;stroke:rgb(46,75,93);stroke-width:2.2px;"/>
                </g>
                <g transform="matrix(0.733951,0,0,1,3735.43,1301.37)">
                    <path d="M18.36,18.36L19.78,19.78" style="fill:none;fill-rule:nonzero;stroke:rgb(46,75,93);stroke-width:2.2px;"/>
                </g>
                <g transform="matrix(0.733951,0,0,1,3735.43,1301.37)">
                    <path d="M1,12L3,12" style="fill:none;fill-rule:nonzero;stroke:rgb(46,75,93);stroke-width:2.2px;"/>
                </g>
                <g transform="matrix(0.733951,0,0,1,3735.43,1301.37)">
                    <path d="M21,12L23,12" style="fill:none;fill-rule:nonzero;stroke:rgb(46,75,93);stroke-width:2.2px;"/>
                </g>
                <g transform="matrix(0.733951,0,0,1,3735.43,1301.37)">
                    <path d="M4.22,19.78L5.64,18.36" style="fill:none;fill-rule:nonzero;stroke:rgb(46,75,93);stroke-width:2.2px;"/>
                </g>
                <g transform="matrix(0.733951,0,0,1,3735.43,1301.37)">
                    <path d="M18.36,5.64L19.78,4.22" style="fill:none;fill-rule:nonzero;stroke:rgb(46,75,93);stroke-width:2.2px;"/>
                </g>
            </g>
        </g>
    </g>
</svg>
